<svg xmlns="http://www.w3.org/2000/svg" xmlns:xlink="http://www.w3.org/1999/xlink" width="500" zoomAndPan="magnify" viewBox="0 0 375 374.999991" height="500" preserveAspectRatio="xMidYMid meet" version="1.0"><defs><g/><clipPath id="4d97d8904a"><path d="M 54.453125 216.929688 L 320.546875 216.929688 L 320.546875 237.253906 L 54.453125 237.253906 Z M 54.453125 216.929688 " clip-rule="nonzero"/></clipPath><clipPath id="d5a0c5faa4"><path d="M 84 178.753906 L 188 178.753906 L 188 226 L 84 226 Z M 84 178.753906 " clip-rule="nonzero"/></clipPath><clipPath id="fe188c631c"><path d="M 84 178.753906 L 187 178.753906 L 187 221 L 84 221 Z M 84 178.753906 " clip-rule="nonzero"/></clipPath><clipPath id="689f24f289"><path d="M 188 178.753906 L 291 178.753906 L 291 221 L 188 221 Z M 188 178.753906 " clip-rule="nonzero"/></clipPath><clipPath id="84624dc206"><path d="M 187 178.753906 L 291 178.753906 L 291 226 L 187 226 Z M 187 178.753906 " clip-rule="nonzero"/></clipPath><clipPath id="db12ee7103"><path d="M 174 45.707031 L 238.125 45.707031 L 238.125 177 L 174 177 Z M 174 45.707031 " clip-rule="nonzero"/></clipPath><clipPath id="d960e157cf"><path d="M 176 164 L 225 164 L 225 178.457031 L 176 178.457031 Z M 176 164 " clip-rule="nonzero"/></clipPath></defs><path fill="#ffe7be" d="M 80.328125 215.046875 C 80.359375 215.054688 83.121094 215.742188 83.160156 215.753906 L 80.328125 215.304688 C 77.550781 216.007812 68.925781 218.519531 67.183594 218.957031 L 63.914062 218.722656 C 63.914062 218.722656 80.273438 215.054688 80.328125 215.046875 " fill-opacity="1" fill-rule="nonzero"/><path fill="#ffe7be" d="M 295.097656 215.046875 C 295.066406 215.054688 292.304688 215.742188 292.265625 215.753906 L 295.09375 215.304688 C 297.875 216.007812 306.496094 218.519531 308.238281 218.957031 L 311.507812 218.722656 C 311.507812 218.722656 295.152344 215.054688 295.097656 215.046875 " fill-opacity="1" fill-rule="nonzero"/><g clip-path="url(#4d97d8904a)"><path fill="#ffe7be" d="M 198.550781 228.941406 C 211.601562 220.238281 227.261719 220.414062 242.101562 225.316406 Z M 132.921875 225.3125 C 148.898438 220.128906 164.15625 220.65625 176.445312 228.933594 Z M 312.765625 219.429688 L 255.027344 224.238281 C 247.285156 221.949219 216.3125 206.519531 195.039062 229.222656 C 195.035156 229.222656 194.0625 230.085938 190.039062 235.867188 C 188.257812 235.867188 186.664062 235.867188 184.972656 235.867188 C 180.945312 230.082031 179.976562 229.226562 179.976562 229.226562 C 166.539062 214.886719 147.0625 214.027344 126.019531 222.164062 C 124.011719 222.941406 122.003906 223.632812 119.996094 224.238281 C 116.957031 223.988281 65.183594 219.675781 62.234375 219.433594 L 54.453125 228.988281 C 58.515625 229.089844 175.925781 232.019531 179.980469 232.121094 L 181.953125 237.582031 C 192.929688 237.582031 182.042969 237.582031 193.070312 237.582031 L 195.042969 232.121094 L 320.546875 228.988281 L 312.765625 219.429688 " fill-opacity="1" fill-rule="nonzero"/></g><path fill="#ffe7be" d="M 187.40625 227.9375 C 172.972656 208.015625 150.480469 205.472656 127.28125 213.015625 C 98.765625 222.285156 77.746094 213.773438 64.535156 192.855469 C 80.464844 212.835938 103.65625 215.511719 128.367188 207.476562 C 153.125 199.425781 174.476562 204.972656 187.40625 227.9375 " fill-opacity="1" fill-rule="nonzero"/><path fill="#ffe7be" d="M 187.40625 233.441406 C 174.21875 215.023438 153.898438 211.519531 132.003906 218.363281 C 111.605469 224.742188 89.003906 224.585938 75.785156 208.027344 C 90.570312 220.4375 108.789062 220.785156 127.097656 214.414062 C 152.488281 205.585938 175.15625 209.570312 187.40625 233.441406 " fill-opacity="1" fill-rule="nonzero"/><path fill="#ffe7be" d="M 118.507812 206.136719 C 111.347656 205.695312 104.753906 203.992188 97.996094 199.34375 C 96.199219 198.101562 96.824219 198.117188 94.9375 198.574219 C 85.53125 200.628906 76.132812 200.40625 67.972656 195.066406 C 67.003906 194.425781 65.691406 193.515625 64.628906 192.472656 C 67.457031 196.941406 77.859375 205.480469 96.027344 200.464844 C 101.6875 204.46875 110 207.121094 118.507812 206.136719 " fill-opacity="1" fill-rule="nonzero"/><g clip-path="url(#d5a0c5faa4)"><path fill="#ffe7be" d="M 187.5 225.347656 C 177.101562 206.589844 157.714844 198.734375 136.847656 202.824219 C 111.191406 207.851562 93.894531 198.273438 84.660156 178.78125 C 96.347656 197.746094 116.136719 202.5 138.367188 198.144531 C 160.640625 193.78125 178.726562 204.113281 187.5 225.347656 " fill-opacity="1" fill-rule="nonzero"/></g><g clip-path="url(#fe188c631c)"><path fill="#ffe7be" d="M 146.050781 187.984375 C 139.542969 188.484375 128.707031 188.792969 123.027344 185.296875 C 122.730469 185.113281 122.433594 185.03125 122.078125 185.167969 C 118.9375 186.359375 115.914062 187.140625 112.550781 187.464844 C 102.625 188.480469 91.753906 184.5 84.660156 178.78125 C 87.261719 181.355469 92.101562 184.671875 97.546875 186.777344 C 105.316406 189.808594 113.710938 190.152344 122.300781 187.210938 C 123.964844 188.21875 127.4375 189.539062 131.992188 190.128906 C 136.949219 190.789062 141.433594 190.648438 146.226562 190.246094 C 172.265625 188.335938 185.5625 207.9375 186.902344 220.882812 C 186.832031 207.304688 173.417969 186.171875 146.050781 187.984375 " fill-opacity="1" fill-rule="nonzero"/></g><path fill="#ffe7be" d="M 187.40625 227.9375 C 201.839844 208.015625 224.441406 205.472656 247.644531 213.015625 C 276.160156 222.285156 297.179688 213.773438 310.390625 192.855469 C 294.457031 212.835938 271.265625 215.511719 246.558594 207.476562 C 221.796875 199.425781 200.332031 204.972656 187.40625 227.9375 " fill-opacity="1" fill-rule="nonzero"/><path fill="#ffe7be" d="M 187.40625 233.441406 C 200.589844 215.023438 221.027344 211.519531 242.917969 218.363281 C 263.320312 224.742188 285.921875 224.585938 299.140625 208.027344 C 284.355469 220.4375 266.136719 220.785156 247.828125 214.414062 C 222.433594 205.585938 199.65625 209.570312 187.40625 233.441406 " fill-opacity="1" fill-rule="nonzero"/><path fill="#ffe7be" d="M 289.414062 199.785156 C 286.582031 199.742188 283.9375 199.34375 281.195312 198.796875 C 276.933594 197.867188 280.324219 197.929688 273.414062 201.585938 C 266.789062 205.085938 262.066406 205.800781 256.609375 206.136719 C 266.503906 207.28125 274.988281 203.332031 279.09375 200.460938 C 295.097656 204.875 306.4375 198.867188 310.484375 192.472656 C 306.207031 196.679688 298.335938 200 289.414062 199.785156 " fill-opacity="1" fill-rule="nonzero"/><g clip-path="url(#689f24f289)"><path fill="#ffe7be" d="M 257.527344 186.640625 C 252.417969 185.324219 252.769531 184.757812 251.894531 185.296875 C 244.644531 189.757812 228.351562 187.925781 227.589844 187.898438 C 201.859375 186.503906 188.09375 207.035156 188.023438 220.882812 C 189.308594 208.441406 201.34375 191.265625 222.480469 190.132812 C 225.738281 189.953125 228.078125 190.191406 229.96875 190.351562 C 236.277344 190.917969 244.71875 190.621094 250.59375 188.203125 C 251.417969 187.867188 252.128906 187.5 252.621094 187.210938 C 257.230469 188.796875 261.964844 189.578125 267.402344 189.117188 C 276.5 188.273438 285.289062 183.707031 290.265625 178.78125 C 282.140625 185.328125 269.660156 189.507812 257.527344 186.640625 " fill-opacity="1" fill-rule="nonzero"/></g><g clip-path="url(#84624dc206)"><path fill="#ffe7be" d="M 187.5 225.347656 C 197.898438 206.589844 217.207031 198.734375 238.078125 202.824219 C 263.734375 207.851562 281.03125 198.273438 290.265625 178.78125 C 278.578125 197.746094 258.785156 202.5 236.558594 198.144531 C 214.28125 193.78125 196.273438 204.113281 187.5 225.347656 " fill-opacity="1" fill-rule="nonzero"/></g><g clip-path="url(#db12ee7103)"><path fill="#ffe7be" d="M 234.867188 94.597656 C 237.390625 85.824219 238.226562 77.457031 238.222656 70.203125 C 237.296875 71.289062 236.382812 71.59375 236.382812 71.59375 C 237.433594 69.972656 237.933594 68.335938 238.167969 67.027344 C 237.726562 54.316406 234.871094 45.742188 234.871094 45.742188 C 234.871094 45.742188 223.621094 65.761719 214.414062 79.117188 C 213.664062 80.207031 213.074219 81.398438 212.679688 82.660156 C 211.886719 85.21875 211.371094 87.957031 211.636719 90.132812 C 211.636719 90.132812 211.203125 86.941406 211.351562 83.410156 C 209.359375 86.078125 207.558594 88.222656 206.117188 89.503906 C 205.421875 90.125 204.742188 90.746094 204.078125 91.363281 C 200.890625 94.324219 198.398438 97.96875 196.847656 102.035156 C 196.433594 103.117188 196.125 104.132812 195.984375 105 C 195.984375 105 195.933594 102.359375 196.332031 99.289062 C 172.871094 125.882812 178.378906 147.792969 179.828125 152.175781 C 179.945312 151.917969 180.058594 151.65625 180.175781 151.394531 C 180.964844 149.617188 181.792969 147.8125 182.652344 145.992188 C 184.375 142.347656 186.257812 138.664062 188.300781 135.03125 C 189.320312 133.214844 190.382812 131.414062 191.488281 129.644531 C 192.597656 127.875 193.75 126.136719 194.960938 124.464844 C 197.378906 121.117188 200 117.976562 202.890625 115.367188 C 203.25 115.035156 203.621094 114.730469 203.988281 114.417969 C 204.347656 114.117188 204.707031 113.816406 205.0625 113.515625 C 205.757812 112.917969 206.449219 112.308594 207.121094 111.667969 C 207.792969 111.035156 208.441406 110.371094 209.085938 109.707031 C 209.71875 109.027344 210.34375 108.347656 210.945312 107.644531 C 213.351562 104.839844 215.515625 101.878906 217.398438 98.882812 C 218.339844 97.386719 219.234375 95.90625 220.054688 94.429688 C 220.878906 92.957031 221.644531 91.5 222.351562 90.082031 C 223.773438 87.246094 224.972656 84.554688 225.972656 82.125 C 226.984375 79.703125 227.785156 77.53125 228.425781 75.734375 C 228.746094 74.835938 229.019531 74.023438 229.25 73.316406 C 229.488281 72.609375 229.683594 72.003906 229.835938 71.507812 C 230.140625 70.523438 230.285156 69.988281 230.285156 69.988281 C 230.285156 69.988281 230.175781 70.535156 229.9375 71.554688 C 229.816406 72.066406 229.660156 72.691406 229.472656 73.425781 C 229.277344 74.15625 229.046875 74.992188 228.773438 75.921875 C 228.238281 77.789062 227.519531 80.023438 226.613281 82.542969 C 225.703125 85.058594 224.585938 87.84375 223.242188 90.796875 C 222.5625 92.265625 221.824219 93.773438 221.023438 95.308594 C 220.222656 96.839844 219.359375 98.394531 218.417969 99.941406 C 217.480469 101.492188 216.472656 103.039062 215.390625 104.566406 C 214.855469 105.335938 214.292969 106.089844 213.71875 106.84375 C 213.136719 107.585938 212.542969 108.328125 211.925781 109.050781 C 211.3125 109.777344 210.671875 110.484375 210.023438 111.1875 C 209.367188 111.878906 208.699219 112.566406 208.007812 113.226562 C 207.320312 113.894531 206.609375 114.527344 205.882812 115.164062 C 205.523438 115.460938 205.160156 115.761719 204.796875 116.0625 C 204.445312 116.359375 204.089844 116.644531 203.746094 116.964844 C 200.964844 119.453125 198.402344 122.492188 196.023438 125.753906 C 193.652344 129.027344 191.433594 132.511719 189.386719 136.070312 C 188.359375 137.847656 187.371094 139.644531 186.421875 141.441406 C 185.46875 143.238281 184.546875 145.027344 183.664062 146.8125 C 182.695312 148.769531 181.769531 150.710938 180.882812 152.621094 C 180.882812 152.621094 176.863281 160.605469 175.382812 172.578125 C 175.007812 172.835938 174.765625 173.265625 174.765625 173.75 C 174.765625 174.296875 175.070312 174.765625 175.519531 175.007812 L 175.664062 175.363281 L 176.050781 176.289062 C 176.097656 176.402344 176.257812 176.402344 176.304688 176.289062 L 176.691406 175.363281 L 176.832031 175.023438 C 177.296875 174.789062 177.617188 174.308594 177.617188 173.75 C 177.617188 173.347656 177.449219 172.984375 177.179688 172.726562 C 177.464844 169.390625 178.769531 159.445312 184.472656 150.875 C 197.789062 144.171875 207.925781 136.425781 215.601562 128.242188 C 215.4375 128.316406 215.269531 128.394531 215.105469 128.472656 C 214.921875 128.558594 214.734375 128.644531 214.550781 128.734375 C 214.457031 128.777344 214.363281 128.820312 214.269531 128.863281 L 213.984375 128.988281 C 213.609375 129.15625 213.234375 129.320312 212.859375 129.488281 C 212.484375 129.652344 212.113281 129.820312 211.738281 129.972656 C 211.363281 130.125 210.992188 130.28125 210.625 130.429688 C 210.441406 130.507812 210.257812 130.582031 210.078125 130.65625 C 209.894531 130.726562 209.710938 130.792969 209.53125 130.863281 C 209.171875 131 208.816406 131.136719 208.46875 131.265625 C 208.121094 131.394531 207.777344 131.511719 207.441406 131.625 C 207.273438 131.683594 207.109375 131.738281 206.945312 131.796875 C 206.785156 131.851562 206.621094 131.898438 206.460938 131.945312 C 206.144531 132.046875 205.835938 132.140625 205.542969 132.230469 C 204.945312 132.390625 204.402344 132.550781 203.910156 132.65625 C 203.789062 132.683594 203.671875 132.710938 203.554688 132.738281 C 203.441406 132.765625 203.328125 132.78125 203.222656 132.804688 C 203.117188 132.824219 203.015625 132.84375 202.917969 132.863281 C 202.820312 132.882812 202.726562 132.898438 202.636719 132.910156 C 202.457031 132.9375 202.300781 132.960938 202.160156 132.980469 C 202.019531 132.996094 201.902344 133.003906 201.804688 133.015625 C 201.707031 133.019531 201.632812 133.027344 201.582031 133.027344 C 201.535156 133.03125 201.507812 133.03125 201.507812 133.03125 L 201.507812 132.960938 C 201.507812 132.960938 201.53125 132.960938 201.582031 132.957031 C 201.628906 132.953125 201.703125 132.945312 201.796875 132.9375 C 201.894531 132.921875 202.007812 132.90625 202.148438 132.882812 C 202.285156 132.859375 202.441406 132.828125 202.617188 132.796875 C 202.703125 132.78125 202.792969 132.757812 202.890625 132.734375 C 202.988281 132.710938 203.085938 132.6875 203.191406 132.664062 C 203.296875 132.636719 203.40625 132.617188 203.519531 132.585938 C 203.632812 132.554688 203.75 132.523438 203.867188 132.488281 C 204.351562 132.363281 204.886719 132.1875 205.472656 132.003906 C 205.761719 131.902344 206.0625 131.796875 206.375 131.6875 C 206.53125 131.628906 206.691406 131.578125 206.847656 131.515625 C 207.007812 131.453125 207.167969 131.390625 207.335938 131.328125 C 207.5 131.265625 207.664062 131.203125 207.832031 131.136719 C 208 131.070312 208.171875 131.007812 208.34375 130.9375 C 208.683594 130.796875 209.03125 130.652344 209.386719 130.503906 C 209.5625 130.429688 209.742188 130.355469 209.921875 130.28125 C 210.101562 130.203125 210.277344 130.121094 210.460938 130.042969 C 210.820312 129.878906 211.183594 129.71875 211.550781 129.550781 C 211.921875 129.390625 212.285156 129.210938 212.652344 129.035156 C 213.019531 128.859375 213.390625 128.679688 213.757812 128.503906 L 214.035156 128.371094 C 214.128906 128.328125 214.21875 128.277344 214.308594 128.230469 C 214.492188 128.140625 214.671875 128.046875 214.851562 127.953125 C 215.214844 127.765625 215.578125 127.578125 215.9375 127.394531 C 216.113281 127.300781 216.292969 127.210938 216.46875 127.117188 L 216.472656 127.117188 C 216.6875 127 216.878906 126.851562 217.039062 126.667969 C 223.757812 119.15625 228.464844 111.304688 231.707031 103.578125 C 229.539062 104.738281 227.886719 104.683594 227.886719 104.683594 C 228.125 104.507812 228.355469 104.328125 228.578125 104.148438 C 231.609375 101.691406 233.789062 98.34375 234.867188 94.597656 " fill-opacity="1" fill-rule="nonzero"/></g><g clip-path="url(#d960e157cf)"><path fill="#ffe7be" d="M 224.191406 169.605469 C 223.757812 168.871094 223.125 168.222656 222.335938 167.710938 C 218.15625 164.996094 214.519531 163.964844 211.507812 164.648438 C 207.195312 165.628906 205.015625 169.886719 203.261719 173.308594 C 202.019531 175.734375 200.945312 177.832031 199.585938 177.757812 C 198.027344 177.671875 196.867188 174.90625 195.847656 172.464844 C 194.832031 170.039062 194.023438 168.121094 192.773438 168.191406 C 191.835938 168.242188 191.496094 169.335938 191.027344 170.851562 C 190.398438 172.882812 189.535156 175.664062 186.832031 177.175781 C 184.597656 178.425781 181.421875 178.636719 177.386719 177.808594 C 177.3125 177.644531 177.097656 177.53125 176.855469 177.570312 C 176.683594 177.597656 176.542969 177.707031 176.503906 177.84375 C 176.433594 178.082031 176.660156 178.296875 176.953125 178.296875 C 177.070312 178.296875 177.171875 178.261719 177.253906 178.207031 C 178.90625 178.542969 180.421875 178.714844 181.796875 178.714844 C 183.910156 178.714844 185.695312 178.316406 187.128906 177.511719 C 189.988281 175.914062 190.878906 173.042969 191.527344 170.949219 C 191.914062 169.703125 192.246094 168.632812 192.808594 168.601562 C 192.816406 168.601562 192.824219 168.601562 192.835938 168.601562 C 193.683594 168.601562 194.570312 170.722656 195.355469 172.597656 C 196.480469 175.285156 197.644531 178.0625 199.550781 178.167969 C 199.589844 178.167969 199.625 178.171875 199.664062 178.171875 C 201.328125 178.171875 202.398438 176.085938 203.738281 173.464844 C 205.449219 170.125 207.578125 165.96875 211.648438 165.042969 C 214.769531 164.335938 218.664062 165.617188 223.222656 168.859375 L 224.191406 169.605469 " fill-opacity="1" fill-rule="nonzero"/></g><g fill="#ffe7be" fill-opacity="1"><g transform="translate(42.682453, 306.839595)"><g><path d="M 6.519531 -46.566406 L 2.527344 -46.566406 L 2.527344 0 L 3.859375 0 L 3.859375 -35.988281 L 17.695312 0 L 19.027344 0 L 32.863281 -42.042969 L 32.863281 0 L 39.515625 0 L 39.515625 -46.566406 L 32.863281 -46.566406 L 20.6875 -9.84375 L 6.585938 -46.566406 Z M 6.519531 -46.566406 "/></g></g></g><g fill="#ffe7be" fill-opacity="1"><g transform="translate(84.859323, 306.839595)"><g><path d="M 0.664062 -46.566406 L 12.90625 -13.304688 L 12.90625 0 L 19.558594 0 L 19.558594 -13.304688 L 31.730469 -46.566406 L 30.335938 -46.566406 L 19.09375 -15.765625 L 7.785156 -46.566406 Z M 0.664062 -46.566406 "/></g></g></g><g fill="#ffe7be" fill-opacity="1"><g transform="translate(117.190468, 306.839595)"><g/></g></g><g fill="#ffe7be" fill-opacity="1"><g transform="translate(129.564145, 306.839595)"><g><path d="M 9.179688 -1.332031 L 9.179688 -46.566406 L 2.527344 -46.566406 L 2.527344 0 L 26.210938 0 L 26.210938 -1.332031 Z M 9.179688 -1.332031 "/></g></g></g><g fill="#ffe7be" fill-opacity="1"><g transform="translate(156.440267, 306.839595)"><g><path d="M 9.3125 -45.238281 L 9.3125 -46.566406 L 2.660156 -46.566406 L 2.660156 0 L 9.3125 0 Z M 9.3125 -45.238281 "/></g></g></g><g fill="#ffe7be" fill-opacity="1"><g transform="translate(168.414761, 306.839595)"><g><path d="M 20.089844 -46.566406 L 2.660156 -46.566406 L 2.660156 0 L 20.089844 0 C 25.414062 0 29.804688 -4.589844 29.804688 -9.980469 L 29.804688 -13.570312 C 29.804688 -18.027344 26.808594 -22.019531 22.75 -23.285156 C 26.808594 -24.546875 29.804688 -28.539062 29.804688 -32.996094 L 29.804688 -36.589844 C 29.804688 -41.976562 25.414062 -46.566406 20.089844 -46.566406 Z M 9.3125 -45.238281 L 16.429688 -45.238281 C 20.089844 -45.238281 23.152344 -42.109375 23.152344 -38.25 L 23.152344 -31.132812 C 23.152344 -27.207031 20.089844 -23.949219 16.429688 -23.949219 L 9.3125 -23.949219 Z M 9.3125 -22.617188 L 16.429688 -22.617188 C 20.089844 -22.617188 23.152344 -19.359375 23.152344 -15.433594 L 23.152344 -8.316406 C 23.152344 -4.457031 20.089844 -1.332031 16.429688 -1.332031 L 9.3125 -1.332031 Z M 9.3125 -22.617188 "/></g></g></g><g fill="#ffe7be" fill-opacity="1"><g transform="translate(200.745905, 306.839595)"><g><path d="M 19.757812 -46.566406 L 2.660156 -46.566406 L 2.660156 0 L 9.3125 0 L 9.3125 -18.09375 L 15.234375 -18.09375 C 17.429688 -18.09375 19.160156 -16.832031 19.890625 -14.835938 L 25.347656 0 L 32.398438 0 L 27.273438 -14.234375 C 26.410156 -16.429688 24.546875 -18.027344 22.21875 -18.761719 C 26.542969 -19.824219 29.738281 -23.550781 29.738281 -28.074219 L 29.738281 -36.589844 C 29.738281 -42.042969 25.214844 -46.566406 19.757812 -46.566406 Z M 9.3125 -45.238281 L 16.097656 -45.238281 C 19.957031 -45.238281 23.085938 -42.109375 23.085938 -38.25 L 23.085938 -26.410156 C 23.085938 -22.550781 19.957031 -19.425781 16.097656 -19.425781 L 9.3125 -19.425781 Z M 9.3125 -45.238281 "/></g></g></g><g fill="#ffe7be" fill-opacity="1"><g transform="translate(234.141434, 306.839595)"><g><path d="M 12.707031 -46.566406 L 0.664062 0 L 1.996094 0 L 5.722656 -14.371094 L 21.15625 -14.371094 L 24.878906 0 L 31.730469 0 L 19.757812 -46.566406 Z M 20.824219 -15.699219 L 6.054688 -15.699219 L 13.503906 -44.171875 Z M 20.824219 -15.699219 "/></g></g></g><g fill="#ffe7be" fill-opacity="1"><g transform="translate(266.472579, 306.839595)"><g><path d="M 19.757812 -46.566406 L 2.660156 -46.566406 L 2.660156 0 L 9.3125 0 L 9.3125 -18.09375 L 15.234375 -18.09375 C 17.429688 -18.09375 19.160156 -16.832031 19.890625 -14.835938 L 25.347656 0 L 32.398438 0 L 27.273438 -14.234375 C 26.410156 -16.429688 24.546875 -18.027344 22.21875 -18.761719 C 26.542969 -19.824219 29.738281 -23.550781 29.738281 -28.074219 L 29.738281 -36.589844 C 29.738281 -42.042969 25.214844 -46.566406 19.757812 -46.566406 Z M 9.3125 -45.238281 L 16.097656 -45.238281 C 19.957031 -45.238281 23.085938 -42.109375 23.085938 -38.25 L 23.085938 -26.410156 C 23.085938 -22.550781 19.957031 -19.425781 16.097656 -19.425781 L 9.3125 -19.425781 Z M 9.3125 -45.238281 "/></g></g></g><g fill="#ffe7be" fill-opacity="1"><g transform="translate(299.868107, 306.839595)"><g><path d="M 0.664062 -46.566406 L 12.90625 -13.304688 L 12.90625 0 L 19.558594 0 L 19.558594 -13.304688 L 31.730469 -46.566406 L 30.335938 -46.566406 L 19.09375 -15.765625 L 7.785156 -46.566406 Z M 0.664062 -46.566406 "/></g></g></g></svg>